<svg width="59" height="17" viewBox="0 0 59 17" fill="none" xmlns="http://www.w3.org/2000/svg">
<path d="M19.8111 5.6638H16.0056C15.8644 5.6638 15.7306 5.74556 15.6711 5.87192L13.5603 10.4207L11.4494 5.87192C11.3899 5.74556 11.2636 5.6638 11.1149 5.6638H9.07095C8.92973 5.6638 8.80338 5.74556 8.73648 5.87192L6.62562 10.4207L4.52962 5.87192C4.47016 5.74556 4.34381 5.65637 4.19515 5.65637H0.367354C0.240999 5.65637 0.122076 5.72327 0.0551824 5.83475C-0.0117112 5.94624 -0.0191413 6.08003 0.0403197 6.19152L5.1168 15.906C5.17626 16.0323 5.30261 16.1066 5.44383 16.1066H7.68105C7.82227 16.1066 7.95606 16.0249 8.01552 15.8911L10.0892 11.3052L12.1629 15.8911C12.2224 16.0174 12.3487 16.1066 12.4974 16.1066H14.7346C14.8684 16.1066 14.9948 16.0323 15.0616 15.906L20.1381 6.19152C20.1976 6.08003 20.1902 5.94624 20.1307 5.83475C20.0638 5.72327 19.9449 5.65637 19.8185 5.65637" fill="white"/>
<path d="M25.8208 5.66418H22.372C22.1713 5.66418 22.0078 5.8277 22.0078 6.02838V15.7428C22.0078 15.9435 22.1713 16.107 22.372 16.107H25.8208C26.0214 16.107 26.1849 15.9435 26.1849 15.7428V6.02838C26.1849 5.8277 26.0214 5.66418 25.8208 5.66418Z" fill="white"/>
<path d="M24.0936 0.00012207C22.83 0.00012207 21.7969 1.03326 21.7969 2.2968C21.7969 3.56035 22.83 4.59348 24.0936 4.59348C25.3571 4.59348 26.3902 3.56035 26.3902 2.2968C26.3902 1.03326 25.3571 0.00012207 24.0936 0.00012207Z" fill="white"/>
<path d="M47.7386 5.6638H43.9331C43.7918 5.6638 43.658 5.74556 43.5986 5.87192L41.4877 10.4207L39.3769 5.87192C39.3174 5.74556 39.191 5.6638 39.0498 5.6638H37.0059C36.8646 5.6638 36.7308 5.74556 36.6714 5.87192L34.5605 10.4207L32.472 5.87192C32.4125 5.74556 32.2787 5.65637 32.1375 5.65637H28.3097C28.1833 5.65637 28.0644 5.72327 27.9975 5.83475C27.9306 5.94624 27.9306 6.08003 27.9827 6.19152L33.0591 15.906C33.1186 16.0323 33.2449 16.1066 33.3862 16.1066H35.6234C35.7646 16.1066 35.8984 16.0249 35.9579 15.8911L38.0316 11.3052L40.1053 15.8911C40.1647 16.0174 40.2985 16.1066 40.4397 16.1066H42.6769C42.8107 16.1066 42.9371 16.0323 43.004 15.906L48.0805 6.19152C48.1399 6.08003 48.1325 5.94624 48.0656 5.83475C47.9987 5.72327 47.8798 5.65637 47.7534 5.65637" fill="white"/>
<path d="M53.7973 5.66418H50.3486C50.1479 5.66418 49.9844 5.8277 49.9844 6.02838V15.7428C49.9844 15.9435 50.1479 16.107 50.3486 16.107H53.7973C53.998 16.107 54.1615 15.9435 54.1615 15.7428V6.02838C54.1615 5.8277 53.998 5.66418 53.7973 5.66418Z" fill="white"/>
<path d="M52.0701 4.59336C53.3411 4.59336 54.3668 3.56023 54.3668 2.29668C54.3668 1.03313 53.3337 0 52.0701 0C50.8066 0 49.7734 1.03313 49.7734 2.29668C49.7734 3.56023 50.8066 4.59336 52.0701 4.59336Z" fill="white"/>
<path d="M57.5 16C58.3301 16 59 15.3252 59 14.5C59 13.6748 58.3252 13 57.5 13C56.6748 13 56 13.6748 56 14.5C56 15.3252 56.6748 16 57.5 16Z" fill="#00FF06"/>
</svg>
